<svg xmlns="http://www.w3.org/2000/svg" width="256" height="256" viewBox="0 0 1487 629">
<g>
<path d="M 0.00 0.00 L 1487.00 0.00 L 1487.00 629.00 L 0.00 629.00 ZM 451.06 500.44 C469.88,504.53 489.33,500.50 501.17,490.08 C506.80,485.13 512.61,474.33 514.53,465.26 C516.48,456.08 516.40,438.65 514.37,429.70 C510.50,412.61 504.89,404.53 479.51,379.50 C460.67,360.93 455.36,354.71 452.98,348.46 C452.19,346.37 452.68,345.24 456.32,340.76 C459.95,336.28 470.57,322.19 475.33,315.52 C476.59,313.75 476.93,313.69 478.52,315.02 C481.68,317.63 483.37,323.26 483.94,333.00 L 484.50 342.50 L 500.38 342.78 L 516.27 343.05 L 515.77 330.28 C514.90,307.98 508.24,295.09 492.64,285.50 C491.18,284.60 491.36,283.54 494.41,275.00 C510.97,228.72 509.59,172.92 490.78,128.00 C480.81,104.19 465.99,80.61 452.35,66.87 C450.70,65.20 450.03,63.76 450.53,62.95 C451.11,62.02 450.85,61.84 449.61,62.32 C448.67,62.68 448.10,62.64 448.36,62.23 C448.61,61.82 448.13,60.58 447.28,59.49 C445.75,57.53 445.74,57.53 446.42,59.47 C446.80,60.55 443.82,58.30 439.79,54.47 C435.77,50.64 430.14,45.65 427.27,43.39 C424.41,41.12 422.39,38.91 422.78,38.47 C423.18,38.04 422.87,38.05 422.10,38.49 C421.24,38.99 420.27,38.76 419.60,37.89 C418.99,37.11 417.30,35.70 415.83,34.76 C414.36,33.82 412.88,32.18 412.54,31.12 C412.20,30.06 411.24,28.92 410.41,28.60 C409.39,28.21 409.14,28.43 409.64,29.26 C410.14,30.09 409.82,30.05 408.70,29.13 C407.77,28.38 404.20,26.44 400.76,24.81 C397.32,23.18 393.64,21.10 392.58,20.18 C391.52,19.25 390.98,19.06 391.38,19.74 C391.87,20.57 391.60,20.78 390.56,20.38 C389.71,20.06 389.26,19.39 389.56,18.91 C389.86,18.42 389.33,18.32 388.39,18.68 C387.13,19.16 386.89,18.99 387.49,18.02 C388.05,17.12 387.92,16.93 387.11,17.43 C386.45,17.84 385.37,17.74 384.71,17.22 C384.04,16.69 381.81,15.72 379.75,15.05 C377.69,14.39 376.00,13.53 376.00,13.14 C376.00,12.75 375.21,12.39 374.25,12.34 C373.29,12.29 366.92,10.38 360.10,8.09 C353.28,5.80 345.65,3.64 343.14,3.30 C339.59,2.81 339.02,2.50 340.54,1.88 C341.68,1.42 340.73,1.33 338.25,1.67 C335.42,2.06 334.00,1.88 334.00,1.13 C334.00,0.31 325.26,0.00 302.68,0.00 C273.27,0.00 270.58,0.15 258.78,2.50 C217.18,10.78 181.08,30.50 150.00,61.91 C133.12,78.98 122.99,93.27 111.58,116.12 C98.78,141.75 92.16,169.48 91.30,201.00 C90.32,236.84 97.23,267.76 113.31,299.50 C127.14,326.81 145.47,349.23 170.50,369.47 C178.13,375.64 193.12,386.00 194.41,386.00 C194.63,386.00 197.66,387.63 201.15,389.62 C216.85,398.57 239.03,406.35 264.00,411.68 C271.01,413.17 277.15,413.49 299.00,413.47 C324.00,413.45 326.22,413.29 338.20,410.73 C368.97,404.15 397.54,391.34 421.78,373.26 L 424.78 371.02 L 429.01 376.76 C431.34,379.92 442.12,391.27 452.96,402.00 C474.21,423.02 477.33,427.33 480.59,440.06 C483.53,451.54 480.49,463.90 473.71,468.04 C471.45,469.41 468.69,469.99 464.40,470.00 C457.09,470.00 452.72,467.54 449.28,461.47 C447.29,457.96 447.03,456.09 447.02,445.25 L 447.00 433.00 L 413.49 433.00 L 413.78 444.75 C414.15,459.36 416.13,468.99 420.61,477.95 C426.41,489.53 437.07,497.41 451.06,500.44 ZM 324.00 408.54 C312.58,410.09 288.52,410.25 275.00,408.87 C253.99,406.73 221.31,396.67 205.08,387.35 C202.56,385.90 198.25,383.49 195.50,381.98 C182.20,374.69 161.17,357.69 149.00,344.38 C96.37,286.84 80.96,207.50 108.15,134.10 C120.50,100.79 146.26,66.28 174.80,44.85 C210.57,18.00 247.39,4.91 291.54,3.36 C310.76,2.69 321.20,3.50 339.10,7.05 C368.43,12.86 396.86,25.72 421.54,44.33 C431.24,51.64 450.68,70.61 458.41,80.33 C470.44,95.42 482.51,116.88 487.91,132.76 C488.98,135.92 491.01,141.58 492.41,145.33 C496.12,155.29 499.77,175.32 501.01,192.50 C502.95,219.26 498.47,253.19 490.47,272.50 C489.01,276.01 487.62,280.18 487.55,281.25 C487.48,282.38 487.18,282.37 477.60,281.01 C453.38,277.58 433.02,284.65 423.52,299.80 C414.25,314.58 412.53,340.50 419.54,359.93 C421.60,365.64 421.89,367.43 420.94,368.57 C419.49,370.32 407.09,378.65 404.41,379.67 C403.36,380.07 401.70,381.14 400.72,382.05 C398.36,384.25 380.29,393.18 371.50,396.50 C354.19,403.04 342.19,406.08 324.00,408.54 ZM 742.00 282.96 L 742.00 499.00 L 773.00 499.00 L 773.00 422.33 C773.00,380.17 773.19,345.85 773.41,346.08 C773.64,346.31 779.54,366.98 786.52,392.00 C793.51,417.02 802.37,448.75 806.23,462.50 C810.08,476.25 813.91,490.09 814.74,493.25 L 816.25 499.00 L 851.00 499.00 L 851.00 283.00 L 820.00 283.00 L 819.94 345.75 L 819.88 408.50 L 816.61 397.00 C813.14,384.78 809.25,370.66 794.58,317.00 L 785.42 283.50 L 763.71 283.23 ZM 566.00 497.11 C566.00,498.88 566.99,499.00 581.86,499.00 L 597.73 499.00 L 598.91 491.25 C599.56,486.99 600.77,479.00 601.60,473.50 C602.43,468.00 603.32,462.49 603.57,461.25 C604.04,459.00 604.07,459.00 624.86,459.00 L 645.69 459.00 L 648.37 475.75 C649.85,484.96 651.29,493.96 651.57,495.75 L 652.09 499.00 L 687.22 499.00 L 686.56 496.37 C686.19,494.92 682.75,475.01 678.91,452.12 C675.07,429.23 669.44,395.88 666.39,378.00 C663.34,360.12 660.05,340.55 659.08,334.50 C658.10,328.45 655.79,314.39 653.93,303.25 L 650.56 283.00 L 625.78 283.00 C612.15,283.00 601.00,283.34 600.99,283.75 C600.99,284.16 593.12,331.91 583.49,389.86 C573.87,447.81 566.00,496.08 566.00,497.11 ZM 351.30 218.95 C359.82,220.63 376.08,220.13 384.00,217.93 C418.74,208.31 440.42,174.54 434.60,139.11 C433.37,131.67 431.99,127.62 427.93,119.55 C422.81,109.38 420.53,106.46 409.41,95.87 C403.41,90.16 393.01,84.96 382.00,82.17 C376.92,80.89 357.00,80.02 357.00,81.08 C357.00,81.46 354.42,82.09 351.26,82.49 C348.10,82.88 343.85,84.06 341.80,85.10 C339.75,86.15 337.64,87.00 337.11,87.00 C335.81,87.00 330.18,90.56 323.30,95.75 C320.19,98.09 317.08,100.00 316.38,100.00 C315.69,100.00 314.80,100.52 314.40,101.15 C313.93,101.92 314.17,102.06 315.10,101.57 C315.87,101.16 315.03,102.22 313.23,103.91 C311.44,105.61 310.31,107.01 310.73,107.03 C311.16,107.05 310.63,107.72 309.56,108.53 C308.49,109.34 307.92,110.00 308.29,110.00 C308.66,110.00 307.24,112.66 305.14,115.91 C298.83,125.67 296.00,136.30 296.00,150.25 C296.00,162.19 298.57,172.54 304.24,183.35 C313.10,200.27 333.01,215.34 351.30,218.95 ZM 910.02 467.50 L 910.14 499.00 L 1010.00 499.00 L 1010.00 482.89 C1010.00,469.30 1009.78,466.87 1008.56,467.34 C1006.54,468.11 947.13,468.46 946.37,467.70 C946.02,467.36 948.33,460.87 951.50,453.29 C959.01,435.28 966.96,416.37 970.96,407.00 C972.72,402.88 976.57,393.65 979.52,386.50 C982.47,379.35 986.53,369.67 988.53,365.00 C990.54,360.33 995.00,349.52 998.45,341.00 C1001.89,332.48 1005.79,323.25 1007.11,320.50 C1009.33,315.85 1009.50,314.34 1009.50,299.00 L 1009.50 282.50 L 1006.00 282.55 C1004.08,282.58 982.14,282.69 957.25,282.80 L 912.00 283.00 L 912.00 314.00 L 974.25 314.00 L 973.68 316.86 C973.36,318.43 971.06,324.05 968.55,329.33 C966.05,334.62 964.00,339.37 964.00,339.89 C964.00,340.41 962.88,343.08 961.50,345.81 C960.12,348.55 959.00,351.42 959.00,352.18 C959.00,352.95 958.08,355.36 956.95,357.54 C955.82,359.72 952.40,367.80 949.35,375.50 C946.30,383.20 943.00,390.85 942.02,392.50 C941.04,394.15 938.78,399.55 937.00,404.50 C934.02,412.82 930.80,420.45 926.05,430.50 C922.48,438.04 920.00,444.26 920.00,445.64 L 920.00 445.72 C920.00,445.87 920.00,446.01 919.99,446.15 C919.93,447.29 919.38,448.41 914.19,459.00 ZM 640.33 428.25 C640.09,428.66 632.93,429.00 624.44,429.00 C612.12,429.00 609.00,428.73 609.00,427.65 C609.00,426.01 617.63,366.76 618.99,359.00 C619.53,355.98 620.88,347.00 622.01,339.06 C623.13,331.11 624.22,324.45 624.43,324.24 C624.63,324.03 625.07,325.58 625.39,327.68 C625.71,329.78 627.59,342.08 629.57,355.00 C631.54,367.92 634.88,389.52 636.97,403.00 C639.07,416.48 640.58,427.84 640.33,428.25 ZM 456.67 334.50 C453.95,337.80 451.38,340.63 450.96,340.80 C449.57,341.35 448.91,331.57 449.97,326.08 C451.34,318.94 453.80,314.89 458.03,312.75 C461.39,311.06 470.98,310.32 472.31,311.65 C473.06,312.39 463.98,325.65 456.67,334.50 ZM 443.46 56.93 C444.44,58.53 445.02,58.22 444.35,56.46 C444.02,55.61 443.54,55.13 443.28,55.39 C443.01,55.65 443.10,56.35 443.46,56.93 Z" fill="rgb(27,27,27)"/>
<path d="M 479.51 379.50 C470.47,370.59 464.54,364.52 460.56,359.93 C457.83,356.84 456.20,354.66 455.15,352.81 C454.97,352.49 454.81,352.18 454.66,351.88 L 453.02 348.54 L 451.89 346.25 L 443.69 354.42 C439.19,358.92 433.16,364.44 430.29,366.69 L 425.09 370.79 L 428.22 375.64 C429.95,378.32 440.65,389.73 452.00,401.00 C474.23,423.09 477.33,427.32 480.59,440.06 C477.33,427.33 474.21,423.02 452.96,402.00 C442.12,391.27 431.34,379.92 429.01,376.76 L 424.78 371.02 L 421.78 373.26 C397.54,391.34 368.97,404.15 338.20,410.73 C326.22,413.29 324.00,413.45 299.00,413.47 C277.15,413.49 271.01,413.17 264.00,411.68 C239.03,406.35 216.85,398.57 201.15,389.62 C197.66,387.63 194.63,386.00 194.41,386.00 C193.12,386.00 178.13,375.64 170.50,369.47 C145.47,349.23 127.14,326.81 113.31,299.50 C97.23,267.76 90.32,236.84 91.30,201.00 C92.16,169.48 98.78,141.75 111.58,116.12 C122.99,93.27 133.12,78.98 150.00,61.91 C181.08,30.50 217.18,10.78 258.78,2.50 C270.58,0.15 273.27,0.00 302.68,0.00 C325.26,0.00 334.00,0.31 334.00,1.13 C334.00,1.88 335.42,2.06 338.25,1.67 C340.73,1.33 341.68,1.42 340.54,1.88 C339.02,2.50 339.59,2.81 343.14,3.30 C345.65,3.64 353.28,5.80 360.10,8.09 C366.92,10.38 373.29,12.29 374.25,12.34 C375.21,12.39 376.00,12.75 376.00,13.14 C376.00,13.53 377.69,14.39 379.75,15.05 C381.81,15.72 384.04,16.69 384.71,17.22 C385.37,17.74 386.45,17.84 387.11,17.43 C387.92,16.93 388.05,17.12 387.49,18.02 C386.89,18.99 387.13,19.16 388.39,18.68 C389.33,18.32 389.86,18.42 389.56,18.91 C389.26,19.39 389.71,20.06 390.56,20.38 C391.60,20.78 391.87,20.57 391.38,19.74 C390.98,19.06 391.52,19.25 392.58,20.18 C393.64,21.10 397.32,23.18 400.76,24.81 C404.20,26.44 407.77,28.38 408.70,29.13 C409.82,30.05 410.14,30.09 409.64,29.26 C409.14,28.43 409.39,28.21 410.41,28.60 C411.24,28.92 412.20,30.06 412.54,31.12 C412.88,32.18 414.36,33.82 415.83,34.76 C417.30,35.70 418.99,37.11 419.60,37.89 C420.27,38.76 421.24,38.99 422.10,38.49 C422.87,38.05 423.18,38.04 422.78,38.47 C422.39,38.91 424.41,41.12 427.27,43.39 C430.14,45.65 435.77,50.64 439.79,54.47 C443.82,58.30 446.80,60.55 446.42,59.47 C445.74,57.53 445.75,57.53 447.28,59.49 C448.13,60.58 448.61,61.82 448.36,62.23 C448.10,62.64 448.67,62.68 449.61,62.32 C450.85,61.84 451.11,62.02 450.53,62.95 C450.03,63.76 450.70,65.20 452.35,66.87 C465.99,80.61 480.81,104.19 490.78,128.00 C509.59,172.92 510.97,228.72 494.41,275.00 C491.36,283.54 491.18,284.60 492.64,285.50 C493.62,286.10 494.57,286.72 495.49,287.36 C496.12,287.76 496.77,288.24 497.45,288.78 C496.82,288.30 496.16,287.82 495.49,287.36 C495.05,287.07 494.62,286.82 494.22,286.61 L 491.06 284.98 L 476.89 313.25 L 478.64 315.12 C480.11,316.39 481.26,318.33 482.11,321.06 C481.29,318.71 480.21,316.79 478.91,315.41 L 478.64 315.12 C478.60,315.08 478.56,315.05 478.52,315.02 C476.93,313.69 476.59,313.75 475.33,315.52 C470.57,322.19 459.95,336.28 456.32,340.76 C452.68,345.24 452.19,346.37 452.98,348.46 C452.99,348.49 453.01,348.51 453.02,348.54 L 455.15 352.81 C456.40,354.84 458.12,357.11 460.56,359.93 C464.21,364.05 469.81,369.79 478.59,378.50 C483.55,383.42 487.76,387.69 491.38,391.50 C506.85,407.72 511.19,415.68 514.37,429.70 C511.22,415.79 506.99,407.97 491.38,391.50 C487.99,387.95 484.07,384.00 479.51,379.50 ZM 324.00 408.54 C342.19,406.08 354.19,403.04 371.50,396.50 C380.29,393.18 398.36,384.25 400.72,382.05 C401.70,381.14 403.36,380.07 404.41,379.67 C407.09,378.65 419.49,370.32 420.94,368.57 C421.78,367.56 421.65,366.06 420.21,361.83 C421.32,364.72 422.42,367.00 422.73,367.00 C424.11,367.00 434.10,358.49 441.50,351.03 L 449.50 342.95 L 449.55 335.84 C449.76,338.83 450.27,341.07 450.96,340.80 C451.38,340.63 453.95,337.80 456.67,334.50 C463.98,325.65 473.06,312.39 472.31,311.65 C472.12,311.46 471.76,311.31 471.28,311.20 L 473.39 311.15 L 475.71 306.57 C476.99,304.06 478.55,302.00 479.19,302.00 C479.82,302.00 480.07,301.74 479.75,301.42 C479.43,301.10 480.93,297.00 483.08,292.32 C485.24,287.63 487.00,283.68 487.00,283.53 C487.00,283.38 484.86,282.64 482.25,281.88 C479.33,281.03 472.88,280.52 465.50,280.55 C460.73,280.57 456.64,280.80 453.00,281.32 C460.46,279.90 468.77,279.76 477.60,281.01 C487.18,282.37 487.48,282.38 487.55,281.25 C487.62,280.18 489.01,276.01 490.47,272.50 C498.47,253.19 502.95,219.26 501.01,192.50 C499.77,175.32 496.12,155.29 492.41,145.33 C491.01,141.58 488.98,135.92 487.91,132.76 C482.51,116.88 470.44,95.42 458.41,80.33 C450.68,70.61 431.24,51.64 421.54,44.33 C396.86,25.72 368.43,12.86 339.10,7.05 C321.20,3.50 310.76,2.69 291.54,3.36 C247.39,4.91 210.57,18.00 174.80,44.85 C146.26,66.28 120.50,100.79 108.15,134.10 C80.96,207.50 96.37,286.84 149.00,344.38 C161.17,357.69 182.20,374.69 195.50,381.98 C198.25,383.49 202.56,385.90 205.08,387.35 C221.31,396.67 253.99,406.73 275.00,408.87 C288.52,410.25 312.58,410.09 324.00,408.54 ZM 351.30 218.95 C333.01,215.34 313.10,200.27 304.24,183.35 C298.57,172.54 296.00,162.19 296.00,150.25 C296.00,136.30 298.83,125.67 305.14,115.91 C307.24,112.66 308.66,110.00 308.29,110.00 C307.92,110.00 308.49,109.34 309.56,108.53 C310.63,107.72 311.16,107.05 310.73,107.03 C310.31,107.01 311.44,105.61 313.23,103.91 C315.03,102.22 315.87,101.16 315.10,101.57 C314.17,102.06 313.93,101.92 314.40,101.15 C314.80,100.52 315.69,100.00 316.38,100.00 C317.08,100.00 320.19,98.09 323.30,95.75 C330.18,90.56 335.81,87.00 337.11,87.00 C337.64,87.00 339.75,86.15 341.80,85.10 C343.85,84.06 348.10,82.88 351.26,82.49 C354.42,82.09 357.00,81.46 357.00,81.08 C357.00,80.02 376.92,80.89 382.00,82.17 C393.01,84.96 403.41,90.16 409.41,95.87 C420.53,106.46 422.81,109.38 427.93,119.55 C431.99,127.62 433.37,131.67 434.60,139.11 C440.42,174.54 418.74,208.31 384.00,217.93 C376.08,220.13 359.82,220.63 351.30,218.95 ZM 357.32 218.08 C362.37,218.49 369.97,218.68 374.20,218.51 C381.25,218.22 383.76,217.52 389.50,214.22 C390.60,213.59 394.94,211.51 399.14,209.59 C405.26,206.81 408.24,204.61 414.07,198.57 C422.75,189.56 426.87,182.58 430.95,169.99 C435.08,157.24 435.48,149.22 432.56,137.42 C429.23,123.98 420.06,107.23 414.04,103.57 C413.19,103.05 411.25,101.39 409.73,99.88 C403.96,94.13 396.58,90.08 385.00,86.32 C378.97,84.37 359.01,83.49 351.68,84.87 C345.01,86.12 328.67,93.65 325.06,97.14 C323.72,98.44 321.36,100.44 319.83,101.59 C316.82,103.85 309.01,113.24 308.98,114.64 C308.97,115.11 307.67,117.40 306.09,119.73 C304.52,122.06 302.01,127.62 300.53,132.08 C298.06,139.55 297.88,141.16 298.29,152.35 C298.96,170.58 300.88,175.93 313.43,194.63 C316.17,198.71 319.19,201.53 322.84,203.42 C324.58,204.32 326.00,205.41 326.00,205.85 C326.00,206.28 330.98,209.05 337.07,211.99 C347.08,216.82 349.03,217.41 357.32,218.08 ZM 1009.50 290.66 C1009.09,287.56 1008.38,285.52 1007.37,284.51 C1006.07,283.21 999.81,283.00 962.06,283.00 C957.89,283.00 954.07,282.99 950.58,282.98 C924.65,282.93 916.46,282.91 913.96,286.67 C912.80,288.41 912.86,290.95 912.95,294.67 C912.97,295.76 913.00,296.95 913.00,298.24 C913.00,307.17 913.32,309.70 914.65,311.17 C916.18,312.85 918.42,313.00 942.90,313.01 C957.53,313.02 970.56,313.31 971.85,313.66 C972.19,313.75 972.49,313.86 972.74,314.00 L 912.00 314.00 L 912.00 283.00 L 957.25 282.80 C982.14,282.69 1004.08,282.58 1006.00,282.55 L 1009.50 282.50 ZM 910.02 467.50 L 914.19 459.00 C914.82,457.71 915.38,456.56 915.88,455.54 C910.74,466.83 909.83,472.79 910.46,484.50 C910.97,493.99 911.34,495.74 913.14,497.25 C915.05,498.86 918.82,499.00 960.16,499.00 L 910.14 499.00 ZM 1008.56 467.34 C1009.78,466.87 1010.00,469.30 1010.00,482.89 C1009.98,474.50 1009.68,472.86 1007.88,470.58 L 1005.77 467.89 L 976.38 468.11 C963.08,468.21 951.58,468.10 947.73,467.87 C956.71,468.40 1006.71,468.05 1008.56,467.34 ZM 1010.00 499.00 L 1005.09 499.00 L 1007.55 496.55 C1009.84,494.25 1010.00,493.40 1010.00,483.68 ZM 416.89 317.24 C415.97,322.22 415.53,327.78 415.55,334.00 C415.57,338.89 415.74,342.79 416.16,346.29 C414.71,336.59 414.99,326.37 416.89,317.24 ZM 485.44 342.52 L 500.38 342.78 L 513.27 343.00 L 500.67 343.00 C493.69,343.00 487.56,342.79 485.44,342.52 ZM 515.99 335.87 L 515.77 330.28 C515.37,320.10 513.77,311.89 510.67,305.06 C514.24,312.79 515.96,321.92 515.98,333.25 L 515.99 335.87 ZM 510.67 305.06 C510.55,304.81 510.44,304.57 510.32,304.33 C507.87,299.25 502.21,292.56 497.45,288.78 C503.39,293.29 507.71,298.55 510.67,305.06 ZM 443.46 56.93 C443.10,56.35 443.01,55.65 443.28,55.39 C443.54,55.13 444.02,55.61 444.35,56.46 C445.02,58.22 444.44,58.53 443.46,56.93 ZM 456.82 313.45 C453.52,315.60 451.45,319.22 450.18,325.03 C451.12,319.16 453.18,315.50 456.82,313.45 ZM 484.00 333.97 L 483.94 333.00 C483.65,327.98 483.05,324.05 482.12,321.06 C483.34,324.54 484.00,328.96 484.00,333.96 L 484.00 333.97 ZM 513.27 343.00 L 516.00 343.00 L 515.99 335.87 L 516.27 343.05 L 513.27 343.00 ZM 433.92 289.01 C433.58,289.26 433.25,289.51 432.91,289.77 C428.92,292.84 425.66,296.37 423.10,300.49 C423.23,300.26 423.37,300.03 423.52,299.80 C426.18,295.55 429.70,291.94 433.92,289.01 ZM 484.00 333.97 L 484.45 341.72 C484.19,340.42 484.00,337.35 484.00,333.97 ZM 968.55 329.33 C970.68,324.85 972.66,320.13 973.40,317.84 C972.78,320.15 971.21,323.72 968.55,329.33 ZM 1009.23 312.76 C1009.05,315.00 1008.74,316.48 1008.23,317.91 C1008.67,316.47 1008.99,314.85 1009.23,312.76 ZM 998.45 341.00 C995.00,349.52 990.54,360.32 988.53,365.00 C990.54,360.32 995.00,349.52 998.44,341.00 C999.82,337.57 1001.27,334.07 1002.58,330.94 C1001.26,334.11 999.82,337.61 998.45,341.00 ZM 484.67 342.33 C484.73,342.40 485.00,342.46 485.44,342.52 L 484.50 342.50 L 484.45 341.72 C484.52,342.05 484.59,342.26 484.67,342.33 ZM 919.15 448.74 C919.25,448.51 919.34,448.31 919.41,448.13 C919.33,448.34 919.24,448.55 919.15,448.74 Z" fill="rgb(115,52,53)"/>
<path d="M 357.32 218.08 C349.03,217.41 347.08,216.82 337.07,211.99 C330.98,209.05 326.00,206.28 326.00,205.85 C326.00,205.41 324.58,204.32 322.84,203.42 C319.19,201.53 316.17,198.71 313.43,194.63 C300.88,175.93 298.96,170.58 298.29,152.35 C297.88,141.16 298.06,139.55 300.53,132.08 C302.01,127.62 304.52,122.06 306.09,119.73 C307.67,117.40 308.97,115.11 308.98,114.64 C309.01,113.24 316.82,103.85 319.83,101.59 C321.36,100.44 323.72,98.44 325.06,97.14 C328.67,93.65 345.01,86.12 351.68,84.87 C359.01,83.49 378.97,84.37 385.00,86.32 C396.58,90.08 403.96,94.13 409.73,99.88 C411.25,101.39 413.19,103.05 414.04,103.57 C420.06,107.23 429.23,123.98 432.56,137.42 C435.48,149.22 435.08,157.24 430.95,169.99 C426.87,182.58 422.75,189.56 414.07,198.57 C408.24,204.61 405.26,206.81 399.14,209.59 C394.94,211.51 390.60,213.59 389.50,214.22 C383.76,217.52 381.25,218.22 374.20,218.51 C369.97,218.68 362.37,218.49 357.32,218.08 ZM 1009.50 290.66 L 1009.50 299.00 C1009.50,305.83 1009.47,309.91 1009.23,312.76 C1008.99,314.85 1008.67,316.47 1008.23,317.91 C1007.93,318.74 1007.56,319.55 1007.11,320.50 C1006.31,322.16 1004.59,326.16 1002.58,330.94 C1001.27,334.07 999.82,337.57 998.44,341.00 C995.00,349.52 990.54,360.32 988.53,365.00 L 988.53 365.00 C986.53,369.67 982.47,379.35 979.52,386.50 C976.57,393.65 972.72,402.88 970.96,407.00 C966.96,416.37 959.01,435.28 951.50,453.29 C948.33,460.87 946.02,467.36 946.37,467.70 C946.43,467.76 946.91,467.82 947.73,467.87 L 947.74 467.87 C951.59,468.10 963.09,468.21 976.38,468.11 L 1005.77 467.89 L 1007.88 470.58 C1009.68,472.86 1009.98,474.50 1010.00,482.89 L 1010.00 483.68 C1010.00,493.40 1009.84,494.25 1007.55,496.55 L 1005.09 499.00 L 960.16 499.00 C918.82,499.00 915.05,498.86 913.14,497.25 C911.34,495.74 910.97,493.99 910.46,484.50 C909.83,472.79 910.74,466.83 915.88,455.54 C917.57,452.10 918.56,450.05 919.15,448.74 C919.15,448.73 919.15,448.73 919.16,448.72 C919.25,448.54 919.33,448.34 919.41,448.13 C919.87,447.06 919.97,446.61 919.99,446.15 C920.00,446.01 920.00,445.87 920.00,445.72 L 920.00 445.72 L 920.00 445.64 C920.00,444.26 922.48,438.04 926.05,430.50 C930.80,420.45 934.02,412.82 937.00,404.50 C938.78,399.55 941.04,394.15 942.02,392.50 C943.00,390.85 946.30,383.20 949.35,375.50 C952.40,367.80 955.82,359.72 956.95,357.54 C958.08,355.36 959.00,352.95 959.00,352.18 C959.00,351.42 960.12,348.55 961.50,345.81 C962.88,343.08 964.00,340.41 964.00,339.89 C964.00,339.37 966.05,334.62 968.55,329.33 C970.68,324.85 972.66,320.13 973.40,317.84 C973.54,317.43 973.63,317.10 973.68,316.86 L 974.25 314.00 L 972.74 314.00 C972.49,313.86 972.19,313.75 971.85,313.66 C970.56,313.31 957.53,313.02 942.90,313.01 C918.42,313.00 916.18,312.85 914.65,311.17 C913.32,309.70 913.00,307.17 913.00,298.24 C913.00,296.95 912.97,295.76 912.95,294.67 C912.86,290.95 912.80,288.41 913.96,286.67 C916.46,282.91 924.65,282.93 950.58,282.98 C954.07,282.99 957.89,283.00 962.06,283.00 C999.81,283.00 1006.07,283.21 1007.37,284.51 C1008.38,285.52 1009.09,287.56 1009.50,290.66 ZM 453.02 348.54 L 455.15 352.81 C454.97,352.49 454.81,352.18 454.66,351.88 Z" fill="rgb(161,26,30)"/>
<path d="M 451.06 500.44 C437.07,497.41 426.41,489.53 420.61,477.95 C416.13,468.99 414.15,459.36 413.78,444.75 L 413.49 433.00 L 430.24 433.00 L 447.00 433.00 L 447.02 445.25 C447.03,456.09 447.29,457.96 449.28,461.47 C452.72,467.54 457.09,470.00 464.40,470.00 C468.69,469.99 471.45,469.41 473.71,468.04 C480.49,463.90 483.53,451.54 480.59,440.06 C477.33,427.32 474.23,423.09 452.00,401.00 C440.65,389.73 429.95,378.32 428.22,375.64 L 425.09 370.79 L 430.29 366.69 C433.16,364.44 439.19,358.92 443.69,354.42 L 451.89 346.25 L 454.66 351.88 C456.82,356.26 462.08,362.12 478.59,378.50 C504.97,404.67 510.49,412.57 514.37,429.70 C516.40,438.65 516.48,456.08 514.53,465.26 C512.61,474.33 506.80,485.13 501.17,490.08 C489.33,500.50 469.88,504.53 451.06,500.44 ZM 566.00 497.11 C566.00,496.08 573.87,447.81 583.49,389.86 C593.12,331.91 600.99,284.16 600.99,283.75 C601.00,283.34 612.15,283.00 625.78,283.00 L 650.56 283.00 L 653.93 303.25 C655.79,314.39 658.10,328.45 659.08,334.50 C660.05,340.55 663.34,360.12 666.39,378.00 C669.44,395.88 675.07,429.23 678.91,452.12 C682.75,475.01 686.19,494.92 686.56,496.37 L 687.22 499.00 L 669.65 499.00 L 652.09 499.00 L 651.57 495.75 C651.29,493.96 649.85,484.96 648.37,475.75 L 645.69 459.00 L 624.86 459.00 C604.07,459.00 604.04,459.00 603.57,461.25 C603.32,462.49 602.43,468.00 601.60,473.50 C600.77,479.00 599.56,486.99 598.91,491.25 L 597.73 499.00 L 581.86 499.00 C566.99,499.00 566.00,498.88 566.00,497.11 ZM 640.33 428.25 C640.58,427.84 639.07,416.48 636.97,403.00 C634.88,389.52 631.54,367.92 629.57,355.00 C627.59,342.08 625.71,329.78 625.39,327.68 C625.07,325.58 624.63,324.03 624.43,324.24 C624.22,324.45 623.13,331.11 622.01,339.06 C620.88,347.00 619.53,355.98 618.99,359.00 C617.63,366.76 609.00,426.01 609.00,427.65 C609.00,428.73 612.12,429.00 624.44,429.00 C632.93,429.00 640.09,428.66 640.33,428.25 ZM 742.00 390.98 L 742.00 282.96 L 763.71 283.23 L 785.42 283.50 L 794.58 317.00 C809.25,370.66 813.14,384.78 816.61,397.00 L 819.88 408.50 L 819.94 345.75 L 820.00 283.00 L 835.50 283.00 L 851.00 283.00 L 851.00 391.00 L 851.00 499.00 L 833.62 499.00 L 816.25 499.00 L 814.74 493.25 C813.91,490.09 810.08,476.25 806.23,462.50 C802.37,448.75 793.51,417.02 786.52,392.00 C779.54,366.98 773.64,346.31 773.41,346.08 C773.19,345.85 773.00,380.17 773.00,422.33 L 773.00 499.00 L 757.50 499.00 L 742.00 499.00 L 742.00 390.98 ZM 420.03 361.35 C416.57,352.11 415.60,346.14 415.55,334.00 C415.48,312.62 420.79,299.10 432.91,289.77 C441.77,282.96 450.06,280.61 465.50,280.55 C472.88,280.52 479.33,281.03 482.25,281.88 C484.86,282.64 487.00,283.38 487.00,283.53 C487.00,283.68 485.24,287.63 483.08,292.32 C480.93,297.00 479.43,301.10 479.75,301.42 C480.07,301.74 479.82,302.00 479.19,302.00 C478.55,302.00 476.99,304.06 475.71,306.57 L 473.39 311.15 L 466.40 311.32 C453.94,311.64 449.69,317.30 449.57,333.73 L 449.50 342.95 L 441.50 351.03 C434.10,358.49 424.11,367.00 422.73,367.00 C422.41,367.00 421.19,364.46 420.03,361.35 ZM 484.67 342.33 C484.30,341.97 484.00,338.20 484.00,333.96 C484.00,325.60 482.15,318.85 478.91,315.41 L 476.89 313.25 L 483.98 299.12 L 491.06 284.98 L 494.22 286.61 C499.29,289.23 507.28,298.02 510.32,304.33 C514.13,312.21 515.96,321.57 515.98,333.25 L 516.00 343.00 L 500.67 343.00 C492.23,343.00 485.03,342.70 484.67,342.33 Z" fill="rgb(237,237,239)"/>
</g>
</svg>